<svg fill="#000000" xmlns="http://www.w3.org/2000/svg"  viewBox="0 0 50 50" width="50px" height="50px"><path fill="none" stroke="#000000" stroke-linecap="round" stroke-linejoin="round" stroke-miterlimit="10" stroke-width="2" d="M25,3C12.8497353,3,3,12.8497353,3,25s9.8497353,22,22,22s22-9.8497353,22-22S37.1502647,3,25,3z"/><path d="M17.1649036,45.0198059c-0.1877117-1.7001534-0.3580589-4.3107491,0.0752487-6.1671906	c0.3903084-1.677002,2.5212898-10.6871548,2.5212898-10.6871548s-0.6433468-1.2883453-0.6433468-3.1910954	c0-2.9901524,1.7324028-5.2211933,3.8898468-5.2211933c1.8349419,0,2.7197514,1.377655,2.7197514,3.0281925	c0,1.8456936-1.1734047,4.6026535-1.7811928,7.1578465c-0.5069046,2.1409054,1.0733471,3.8865376,3.1836529,3.8865376	c3.8212109,0,6.7584419-4.0295944,6.7584419-9.8453445c0-5.1475964-3.698-8.7471933-8.979557-8.7471933	c-6.1167507,0-9.7072506,4.5885954-9.7072506,9.3310003c0,1.8473473,0.711154,3.8286552,1.6000957,4.9069595	c0.1753082,0.2133465,0.200943,0.3994064,0.1488457,0.6160583c-0.1629047,0.6789017-0.525095,2.1392498-0.5970383,2.4385967	c-0.0934429,0.3944435-0.3117504,0.4763069-0.7185955,0.2869415c-2.6858454-1.2503071-4.3645-5.1757107-4.3645-8.3295956	c0-6.7815971,4.9268074-13.010808,14.2065392-13.010808c7.458847,0,13.2547493,5.3138075,13.2547493,12.4179029	c0,7.4100571-4.6729431,13.3730011-11.156847,13.3730011c-2.1789417,0-4.2264042-1.1320572-4.9268074-2.4691925	c0,0-1.0783081,4.104847-1.3404427,5.1112099c-0.4854031,1.8671951-1.7952499,4.2090416-2.6734428,5.6363068	C18.2905045,45.7898674,17.2618065,45.6401405,17.1649036,45.0198059z"/></svg>